<?xml version="1.0" standalone="no"?>
<!DOCTYPE svg PUBLIC "-//W3C//DTD SVG 1.1//EN" "http://www.w3.org/Graphics/SVG/1.1/DTD/svg11.dtd" >
<svg xmlns="http://www.w3.org/2000/svg" xmlns:xlink="http://www.w3.org/1999/xlink" version="1.1">
<metadata></metadata>
<defs>
<font id="engravers_gothicregular" horiz-adv-x="1024" >
<font-face units-per-em="2048" ascent="1638" descent="-410" />
<missing-glyph horiz-adv-x="681" />
<glyph unicode="&#xfb01;" horiz-adv-x="1394" d="M145 0v854h789v-125h-655v-213h423v-123h-423v-393h-134zM1110 -2v858h136v-858h-136z" />
<glyph unicode="&#xfb02;" horiz-adv-x="1882" d="M145 0v854h789v-125h-655v-213h423v-123h-423v-393h-134zM1108 0v854h134v-731h634v-123h-768z" />
<glyph horiz-adv-x="0" />
<glyph unicode="&#xd;" horiz-adv-x="681" />
<glyph unicode=" "  horiz-adv-x="681" />
<glyph unicode="&#x09;" horiz-adv-x="681" />
<glyph unicode="&#xa0;" horiz-adv-x="681" />
<glyph unicode="!" horiz-adv-x="681" d="M258 61q0 41 24.5 67t59.5 26t58.5 -26t23.5 -67t-23.5 -65.5t-58.5 -24.5t-59.5 24.5t-24.5 65.5zM266 1104h152l-17 -817h-118z" />
<glyph unicode="&#x22;" horiz-adv-x="569" d="M98 881v553h101v-553h-101zM371 881v553h102v-553h-102z" />
<glyph unicode="#" horiz-adv-x="1574" d="M117 479l39 107h325l101 278h-353l35 107h354l173 483h127l-168 -483h264l172 483h127l-170 -483h315l-37 -107h-317l-98 -278h340l-37 -107h-340l-170 -479h-129l172 479h-269l-172 -479h-127l170 479h-327zM612 586h267l96 278h-266z" />
<glyph unicode="$" horiz-adv-x="1366" d="M178 158l76 110q90 -70 183 -110.5t188 -55.5v410q-199 10 -300.5 80t-101.5 190q0 59 28 112.5t80 92.5t126.5 62.5t167.5 25.5v164h116v-174q111 -18 206 -58t186 -106l-70 -104q-76 59 -154 95t-168 52v-315q219 -4 334 -92t115 -228q0 -68 -31 -129t-89 -107 t-141 -74t-188 -28v-233h-116v239q-248 27 -447 181zM360 788q0 -133 265 -153v317q-127 -6 -196 -53t-69 -111zM741 92q150 10 231 70.5t81 150.5q0 84 -79 138.5t-233 54.5v-414z" />
<glyph unicode="%" horiz-adv-x="1726" d="M51 756q0 70 23.5 128t66.5 101t100.5 66.5t125.5 23.5t126 -23.5t99 -66.5t64.5 -101.5t23.5 -127.5q0 -70 -23.5 -128.5t-65.5 -100.5t-99 -65.5t-125 -23.5t-125.5 23.5t-99.5 65.5t-66.5 100.5t-24.5 128.5zM182 758q0 -86 53.5 -143.5t131.5 -57.5q80 0 133 57.5 t53 143.5t-53.5 142t-132.5 56q-78 0 -131.5 -55t-53.5 -143zM510 0l561 1051h143l-561 -1051h-143zM1044 289q0 70 24 128t66 100t99 65.5t125 23.5t126 -23.5t100 -65.5t65.5 -100.5t23.5 -127.5q0 -70 -23.5 -128.5t-66.5 -100.5t-100 -65.5t-125 -23.5t-125 23.5 t-99 65.5t-66 100.5t-24 128.5zM1174 289q0 -86 53 -142.5t131 -56.5q80 0 133 56.5t53 142.5t-53 143t-133 57q-78 0 -131 -56t-53 -144z" />
<glyph unicode="&#x26;" horiz-adv-x="1265" d="M137 328q0 133 82 233.5t250 183.5l-303 359h725l76 -121h-518l540 -637q25 25 53.5 54.5t57.5 68.5l88 -113q-45 -63 -109 -120l197 -228h-176l-123 139q-106 -90 -207.5 -134t-220.5 -44q-188 0 -300 97.5t-112 261.5zM283 334q0 -104 72.5 -170t191.5 -66 q180 0 348 150l-340 399q-272 -117 -272 -313z" />
<glyph unicode="'" horiz-adv-x="294" d="M98 881v553h101v-553h-101z" />
<glyph unicode="(" horiz-adv-x="559" d="M117 551q0 174 65.5 311t206.5 266l66 -77q-109 -92 -157 -213t-48 -287t48 -288t157 -214l-66 -78q-141 129 -206.5 267.5t-65.5 312.5z" />
<glyph unicode=")" horiz-adv-x="559" d="M104 49q109 92 157 214t48 288t-48 286.5t-157 213.5l66 77q141 -129 206.5 -266t65.5 -311t-65.5 -312.5t-206.5 -267.5z" />
<glyph unicode="*" d="M207 844l37 102l221 -82v240h96l-4 -240l223 78l35 -100l-235 -64l161 -194l-90 -66l-141 211l-141 -207l-88 62l159 198z" />
<glyph unicode="+" horiz-adv-x="1705" d="M254 561v98h551v562h98v-562h549v-98h-549v-561h-98v561h-551z" />
<glyph unicode="," horiz-adv-x="681" d="M248 -174q59 88 88 174h-8q-29 0 -50.5 24.5t-21.5 65.5q0 43 24.5 70.5t61.5 27.5q39 0 66.5 -34.5t27.5 -100.5q0 -111 -151 -262z" />
<glyph unicode="-" horiz-adv-x="526" d="M47 489v121h432v-121h-432z" />
<glyph unicode="." horiz-adv-x="681" d="M258 61q0 41 24.5 67t59.5 26t58.5 -26t23.5 -67t-23.5 -65.5t-58.5 -24.5t-59.5 24.5t-24.5 65.5z" />
<glyph unicode="/" horiz-adv-x="569" d="M-39 -190l526 1318h121l-526 -1318h-121z" />
<glyph unicode="0" horiz-adv-x="1366" d="M76 522q0 117 44 218.5t124 175t191.5 116.5t246.5 43t246.5 -43t192.5 -116.5t125 -175t44 -218.5t-44 -217t-125 -175t-192.5 -117t-246.5 -42t-246.5 42t-191.5 117t-124 175.5t-44 216.5zM217 522q0 -88 34 -165.5t95.5 -135t147.5 -90.5t188 -33q104 0 189 33 t146.5 90.5t95.5 135t34 165.5t-34 166t-94.5 135.5t-146.5 90t-190 32.5t-190 -32.5t-146.5 -90t-94.5 -135.5t-34 -166z" />
<glyph unicode="1" horiz-adv-x="1366" d="M612 -6v1061h140v-1061h-140z" />
<glyph unicode="2" horiz-adv-x="1366" d="M236 131q0 78 14 139.5t49 110.5t94.5 87t151.5 71q115 41 203 68.5t147 53t89 53t30 68.5q0 66 -68.5 115t-191.5 49q-104 0 -208 -42t-218 -122l-82 107q121 92 241.5 139t253.5 47q96 0 173 -23.5t131.5 -63.5t83 -94t28.5 -114q0 -68 -30.5 -113.5t-88 -79.5 t-136.5 -61.5t-177 -60.5q-90 -31 -155.5 -55.5t-108.5 -55t-64.5 -71.5t-21.5 -103q0 -12 1 -25.5t3 -27.5h799v-127h-938q-2 55 -3 88t-1 43z" />
<glyph unicode="3" horiz-adv-x="1366" d="M117 215l86 104q61 -57 120.5 -98t121 -68.5t127 -41t139.5 -13.5q94 0 167.5 19.5t125 52.5t79 74t27.5 84q0 186 -350 186h-47v127q18 -2 35.5 -2h33.5q125 0 186.5 33t61.5 108q0 72 -69.5 119t-198.5 47q-217 0 -428 -153l-82 112q113 84 243 127t273 43 q190 0 296.5 -82t106.5 -213q0 -121 -96 -194q178 -78 178 -254q0 -70 -36.5 -135.5t-106.5 -115.5t-169 -80t-222 -30q-182 0 -327.5 57.5t-274.5 186.5z" />
<glyph unicode="4" horiz-adv-x="1366" d="M115 254v129l839 668h138v-668h176v-129h-176v-254h-138v254h-839zM326 383h628v500z" />
<glyph unicode="5" horiz-adv-x="1366" d="M166 166l70 117q129 -90 240.5 -136.5t230.5 -46.5q76 0 140 21.5t109 59.5t71 88t26 108q0 49 -24.5 92t-71 74.5t-113 51t-152.5 19.5q-98 0 -183 -26.5t-177 -79.5h-86v543h850v-129h-713v-234q82 27 157.5 41t151.5 14q117 0 210 -29.5t158.5 -80.5t100.5 -122 t35 -151q0 -78 -35 -148.5t-99.5 -123.5t-156.5 -85t-205 -32q-141 0 -273 48.5t-261 146.5z" />
<glyph unicode="6" horiz-adv-x="1366" d="M119 530q0 119 44 219.5t124 172t191.5 112.5t246.5 41q139 0 254 -44t225 -136l-80 -96q-92 74 -192.5 110.5t-200.5 36.5q-190 0 -311 -89t-146 -243q121 63 234 94t240 31q117 0 212 -28.5t164.5 -79.5t107.5 -122t38 -153t-35 -152.5t-99.5 -121.5t-158.5 -81 t-211 -30q-147 0 -266 44t-204 121t-131 178.5t-46 215.5zM272 463q8 -74 50.5 -139.5t109 -115.5t151.5 -79t183 -29q80 0 146.5 21.5t114.5 56.5t73.5 81t25.5 95q0 53 -28.5 100.5t-78.5 82t-119 54t-148 19.5q-123 0 -240 -36.5t-240 -110.5z" />
<glyph unicode="7" horiz-adv-x="1366" d="M213 922v129h1067l-741 -1051h-162l645 922h-809z" />
<glyph unicode="8" horiz-adv-x="1366" d="M156 326q0 186 190 272q-117 76 -117 193q0 125 118 203.5t335 78.5t335 -79t118 -203q0 -117 -117 -193q188 -88 188 -270q0 -78 -34.5 -143.5t-102.5 -112.5t-165 -74t-222 -27q-252 0 -389 98.5t-137 256.5zM299 326q0 -98 98.5 -162t284.5 -64t283.5 63.5t97.5 162.5 q0 115 -96.5 156.5t-284.5 41.5t-285.5 -41.5t-97.5 -156.5zM375 793q0 -63 76.5 -101.5t230.5 -38.5t231.5 38t77.5 106q0 61 -78.5 105t-230.5 44q-150 0 -228.5 -44t-78.5 -109z" />
<glyph unicode="9" horiz-adv-x="1366" d="M94 690q0 82 35 152.5t100.5 122t159.5 81t211 29.5q147 0 266 -44t204 -120.5t131 -178t46 -216.5q0 -119 -44 -219t-124 -172t-191.5 -113t-246.5 -41q-139 0 -255 44t-226 137l82 94q92 -74 192.5 -110t200.5 -36q190 0 311 88t146 242q-121 -63 -234 -93t-240 -30 q-117 0 -213 29t-164.5 80t-107.5 121.5t-39 152.5zM238 690q0 -53 28.5 -100t79.5 -82t120 -54.5t148 -19.5q123 0 239 38t239 112q-10 74 -51.5 139t-108 115.5t-151.5 79t-183 28.5q-80 0 -146.5 -21.5t-114.5 -57.5t-73.5 -82t-25.5 -95z" />
<glyph unicode=":" horiz-adv-x="681" d="M258 61q0 41 24.5 67t59.5 26t58.5 -26t23.5 -67t-23.5 -65.5t-58.5 -24.5t-59.5 24.5t-24.5 65.5zM258 637q0 41 24.5 65.5t59.5 24.5t58.5 -24.5t23.5 -65.5t-23.5 -66.5t-58.5 -25.5t-59.5 25.5t-24.5 66.5z" />
<glyph unicode=";" horiz-adv-x="681" d="M248 -174q59 88 88 174h-8q-29 0 -50.5 24.5t-21.5 65.5q0 43 24.5 70.5t61.5 27.5q39 0 66.5 -34.5t27.5 -100.5q0 -111 -151 -262zM258 637q0 41 24.5 65.5t59.5 24.5t58.5 -24.5t23.5 -65.5t-23.5 -66.5t-58.5 -25.5t-59.5 25.5t-24.5 66.5z" />
<glyph unicode="&#x3c;" horiz-adv-x="1705" d="M264 569v82l1178 484v-109l-1022 -416l1022 -413v-109z" />
<glyph unicode="=" horiz-adv-x="1705" d="M254 375v98h1198v-98h-1198zM254 748v98h1198v-98h-1198z" />
<glyph unicode="&#x3e;" horiz-adv-x="1705" d="M264 88v109l1022 413l-1022 416v109l1178 -484v-82z" />
<glyph unicode="?" horiz-adv-x="739" d="M55 897q61 231 334 231q141 0 219 -70.5t78 -189.5q0 -49 -19.5 -89t-58.5 -77l-174 -170q-41 -41 -41 -120v-144h-137v178q0 70 25.5 107t58.5 70l170 170q23 23 30 41t7 47q0 53 -43 88t-117 35q-82 0 -135 -40t-70 -114zM244 61q0 41 24.5 67t59.5 26t59.5 -26 t24.5 -67t-25 -65.5t-59 -24.5q-35 0 -59.5 24.5t-24.5 65.5z" />
<glyph unicode="@" horiz-adv-x="2048" d="M117 537q0 205 86 382t252 314q268 221 659 221q168 0 312.5 -45t244.5 -123q129 -100 194.5 -228t65.5 -280q0 -174 -62.5 -311t-180.5 -231q-141 -111 -310 -111q-193 0 -192 151q0 6 1 13.5t1 15.5q-51 -88 -127 -134t-168 -46q-154 0 -233.5 84t-79.5 244 q0 117 36.5 217t99 172.5t147.5 114.5t181 42q188 0 254 -163l60 125h94l-139 -562q-8 -35 -12.5 -56t-4.5 -36q0 -43 28 -67.5t79 -24.5q49 0 103.5 20.5t107.5 61.5q96 76 150.5 202t54.5 285q0 123 -51.5 229.5t-143.5 184.5t-222 122t-290 44q-350 0 -582 -199 q-297 -254 -297 -653q0 -174 58.5 -304t185.5 -233q100 -82 241.5 -128t303.5 -46q174 0 337 50.5t298 142.5l39 -55q-295 -221 -654 -222q-383 0 -622 185q-156 119 -229.5 273.5t-73.5 361.5zM702 444q0 -113 54.5 -174t152.5 -61q106 0 189.5 70.5t111.5 189.5l62 248 q-18 94 -75.5 146t-139.5 52q-78 0 -143.5 -35.5t-112.5 -99t-73 -149.5t-26 -187z" />
<glyph unicode="A" horiz-adv-x="1204" d="M0 0l541 1104h114l547 -1104h-149l-150 297h-610l-146 -297h-147zM356 426h486l-244 489z" />
<glyph unicode="B" horiz-adv-x="1337" d="M166 0v1104h653q166 0 248 -69.5t82 -205.5q0 -137 -100 -202q178 -102 178 -295q0 -152 -98.5 -242t-274.5 -90h-688zM303 127h578q98 0 150 56.5t52 150.5q0 92 -52 149.5t-150 57.5h-578v-414zM303 668h528q88 0 133.5 40t45.5 113q0 156 -179 156h-528v-309z" />
<glyph unicode="C" horiz-adv-x="1236" d="M78 549q0 125 43 231.5t118.5 184t181 120.5t228.5 43q154 0 280 -67.5t204 -190.5l-115 -82q-53 100 -150.5 155.5t-218.5 55.5q-92 0 -171 -33.5t-136 -93t-90 -142.5t-33 -181t33 -180t90 -142.5t136 -93.5t171 -33q129 0 230.5 63.5t167.5 188.5l110 -82 q-78 -145 -209 -222t-299 -77q-123 0 -228.5 43t-181 120t-118.5 182.5t-43 232.5z" />
<glyph unicode="D" horiz-adv-x="1294" d="M166 0v1104h473q135 0 241.5 -42t182.5 -116t116 -176t40 -221t-39 -219.5t-113 -174t-182.5 -114.5t-245.5 -41h-473zM303 127h336q106 0 188 31.5t137.5 88t84 134.5t28.5 170t-29.5 171t-86 135t-138.5 88t-184 32h-336v-850z" />
<glyph unicode="E" horiz-adv-x="1118" d="M166 0v1104h868v-127h-731v-324h442v-127h-442v-399h776v-127h-913z" />
<glyph unicode="F" horiz-adv-x="1013" d="M166 0v1104h868v-127h-731v-324h442v-127h-442v-526h-137z" />
<glyph unicode="G" horiz-adv-x="1265" d="M78 549q0 125 43 231.5t118.5 184t181 120.5t228.5 43q154 0 280 -67.5t204 -190.5l-115 -82q-53 100 -150.5 155.5t-218.5 55.5q-92 0 -171 -33.5t-136 -93t-90 -142.5t-33 -181t33 -180t90 -142.5t136 -93.5t171 -33q231 0 363 199v162h-301v127h438v-332 q-80 -139 -208 -212t-292 -73q-123 0 -228.5 43t-181 120t-118.5 182.5t-43 232.5z" />
<glyph unicode="H" horiz-adv-x="1261" d="M166 0v1104h139v-436h651v436h138v-1104h-138v541h-651v-541h-139z" />
<glyph unicode="I" horiz-adv-x="473" d="M168 -4v1114h139v-1114h-139z" />
<glyph unicode="J" horiz-adv-x="1099" d="M39 299v176h137v-172q0 -111 81 -157t253 -46q90 0 148.5 14.5t92 48.5t47 89t13.5 137v715h137v-752q0 -102 -25.5 -174t-81 -118t-143.5 -67.5t-213 -21.5q-227 0 -336.5 80t-109.5 248z" />
<glyph unicode="K" horiz-adv-x="1200" d="M166 0v1106h137v-551l633 551h180l-446 -393l514 -713h-166l-447 618l-268 -225v-393h-137z" />
<glyph unicode="L" d="M166 0v1104h137v-977h721v-127h-858z" />
<glyph unicode="M" horiz-adv-x="1464" d="M160 0v1104h127l446 -676l449 676h125v-1104h-136v862l-438 -653l-438 653v-862h-135z" />
<glyph unicode="N" horiz-adv-x="1255" d="M166 0v1104h72l716 -825v825h138v-1104h-70l-719 825v-825h-137z" />
<glyph unicode="O" horiz-adv-x="1298" d="M78 549q0 125 43 231.5t118.5 184t181 120.5t228.5 43t228.5 -43t182.5 -120.5t120 -184t43 -231.5q0 -127 -43 -232.5t-120 -182.5t-182.5 -120t-228.5 -43t-228.5 43t-181 120t-118.5 182.5t-43 232.5zM219 549q0 -98 33 -180t90 -142.5t136 -93.5t171 -33t171 34 t136.5 93.5t90 141.5t32.5 180t-32.5 181t-90 142.5t-136.5 93t-171 33.5t-171 -33.5t-136 -93t-90 -142.5t-33 -181z" />
<glyph unicode="P" horiz-adv-x="1200" d="M160 0v1104h633q164 0 255 -80t91 -219q0 -70 -22.5 -128.5t-64.5 -101.5t-102.5 -67.5t-138.5 -24.5h-514v-483h-137zM297 612h487q211 0 211 181q0 86 -52 135t-152 49h-494v-365z" />
<glyph unicode="Q" horiz-adv-x="1298" d="M78 549q0 125 43 231.5t118.5 184t181 120.5t228.5 43t228.5 -43t182.5 -120.5t120 -184t43 -231.5q0 -188 -93.5 -329.5t-267.5 -213.5l74 -151h-154l-59 120q-25 -4 -45.5 -4h-40.5q-117 0 -219.5 43t-177 120t-118.5 182.5t-44 232.5zM219 549q0 -96 32 -178 t88 -141.5t135 -93.5t171 -34h19l-68 142h154l55 -117q129 51 201.5 162.5t72.5 259.5q0 98 -32.5 180t-90 142.5t-136.5 94t-171 33.5t-171 -33.5t-136 -93t-90 -142.5t-33 -181z" />
<glyph unicode="R" horiz-adv-x="1222" d="M160 0v1104h633q164 0 255 -81t91 -226q0 -59 -18.5 -110.5t-52.5 -92.5t-82 -69.5t-109 -39.5l276 -485h-152l-276 483h-428v-483h-137zM297 612h487q211 0 211 181q0 86 -52 135t-152 49h-494v-365z" />
<glyph unicode="S" horiz-adv-x="1222" d="M61 166l80 119q119 -92 245 -139.5t249 -47.5q80 0 143.5 17.5t107.5 49.5t68.5 74t24.5 91q0 76 -64.5 131t-193.5 65q-72 6 -134.5 10.5t-119.5 10.5t-107.5 17t-93.5 32q-157 76 -157 225q0 65 29.5 120.5t86 97.5t135 65.5t177.5 23.5q141 0 274 -46t254 -134 l-80 -114q-206 165 -443 165h-3q-131 0 -209 -50t-78 -120q0 -57 53 -98q35 -27 82 -39t104.5 -18t125 -9t143.5 -12q174 -20 269 -110t95 -217q0 -72 -32.5 -136.5t-94 -112.5t-152.5 -77t-208 -29q-164 0 -305.5 47.5t-270.5 147.5z" />
<glyph unicode="T" horiz-adv-x="854" d="M-106 977v127h1067v-127h-465v-977h-138v977h-464z" />
<glyph unicode="U" horiz-adv-x="1185" d="M137 352v752h137v-715q0 -86 14.5 -142.5t50.5 -88t97.5 -45t155.5 -13.5t155.5 13.5t97.5 45t50 88t14 142.5v715h138v-752q0 -203 -105.5 -292t-349.5 -89t-349.5 89.5t-105.5 291.5z" />
<glyph unicode="V" horiz-adv-x="1124" d="M-14 1104h149l426 -885l426 885h152l-535 -1104h-86z" />
<glyph unicode="W" horiz-adv-x="1474" d="M-12 1104h135l274 -852l281 852h123l280 -850l275 850h131l-359 -1104h-100l-291 889l-288 -889h-101z" />
<glyph unicode="X" horiz-adv-x="1124" d="M29 0l450 555l-444 549h168l362 -442l361 442h166l-445 -543l457 -561h-176l-367 455l-371 -455h-161z" />
<glyph unicode="Y" horiz-adv-x="929" d="M-102 1104h172l395 -436l393 436h174l-500 -553v-551h-137v553z" />
<glyph unicode="Z" horiz-adv-x="1042" d="M-4 0l745 977h-682v127h932l-729 -977h725v-127h-991z" />
<glyph unicode="[" horiz-adv-x="559" d="M115 0v1104h319v-119h-192v-866h192v-119h-319z" />
<glyph unicode="\" horiz-adv-x="569" d="M-39 1128h121l526 -1318h-121z" />
<glyph unicode="]" horiz-adv-x="559" d="M125 0v119h192v866h-192v119h321v-1104h-321z" />
<glyph unicode="^" horiz-adv-x="2048" d="M422 901l532 557h140l530 -557h-143l-457 455l-459 -455h-143z" />
<glyph unicode="_" d="M0 -383h1024v-100h-1024v100z" />
<glyph unicode="`" d="M276 1337h152l209 -350h-92z" />
<glyph unicode="a" horiz-adv-x="919" d="M-18 0l434 854h84l438 -854h-143l-111 217h-451l-110 -217h-141zM291 330h334l-166 327z" />
<glyph unicode="b" horiz-adv-x="1114" d="M147 0v852h525q264 0 264 -211q0 -106 -82 -158q143 -82 143 -227q0 -117 -76.5 -186.5t-222.5 -69.5h-551zM281 123h432q72 0 109.5 38t37.5 103q0 66 -38 102.5t-109 36.5h-432v-280zM281 528h389q129 0 129 101q0 100 -131 100h-387v-201z" />
<glyph unicode="c" horiz-adv-x="1128" d="M72 424q0 96 37.5 179t106.5 143.5t163 95.5t209 35q141 0 254.5 -52.5t183.5 -148.5l-106 -74q-53 72 -138.5 112t-193.5 40q-84 0 -152.5 -24.5t-120 -69t-79 -104.5t-27.5 -130t28.5 -130t79 -104.5t120 -69t151.5 -24.5q225 0 354 185l107 -74q-72 -115 -190 -175.5 t-271 -60.5q-115 0 -209 34t-163 94.5t-106.5 143.5t-37.5 179z" />
<glyph unicode="d" horiz-adv-x="1056" d="M147 0v854h379q109 0 195 -33t146.5 -90t92 -136t31.5 -171t-30.5 -170t-90 -134.5t-146.5 -88t-198 -31.5h-379zM281 123h247q160 0 243 85t83 218q0 66 -22.5 121t-64.5 96t-102.5 64.5t-136.5 23.5h-247v-608z" />
<glyph unicode="e" horiz-adv-x="1028" d="M145 0v854h801v-125h-667v-213h438v-123h-438v-270h704v-123h-838z" />
<glyph unicode="f" horiz-adv-x="962" d="M145 0v854h789v-125h-655v-213h423v-123h-423v-393h-134z" />
<glyph unicode="g" horiz-adv-x="1175" d="M72 424q0 94 39 177t109.5 144.5t168.5 96.5t219 35q299 0 453 -201l-103 -74q-53 72 -145 112t-205 40q-90 0 -163.5 -26t-126 -70t-81 -104t-28.5 -128t27.5 -128t80 -104t126 -70t165.5 -26q57 0 110.5 11.5t96.5 31t76 45t51 54.5v92h-217v123h352v-258 q-74 -111 -191.5 -167.5t-277.5 -56.5q-121 0 -220 35t-170 95.5t-108.5 142.5t-37.5 178z" />
<glyph unicode="h" horiz-adv-x="1157" d="M145 0v854h134v-332h600v332h133v-854h-133v397h-600v-397h-134z" />
<glyph unicode="i" horiz-adv-x="432" d="M147 -2v858h136v-858h-136z" />
<glyph unicode="j" horiz-adv-x="915" d="M49 256v109h133v-91q0 -94 59.5 -136t184.5 -42q66 0 109 12.5t67.5 42t34.5 76.5t10 119v506h133v-549q0 -178 -86 -254t-284 -76q-182 0 -271.5 69t-89.5 214z" />
<glyph unicode="k" horiz-adv-x="972" d="M147 0v852h134v-379l452 379h176l-358 -303l412 -549h-150l-356 471l-176 -149v-322h-134z" />
<glyph unicode="l" horiz-adv-x="919" d="M145 0v854h134v-731h634v-123h-768z" />
<glyph unicode="m" horiz-adv-x="1214" d="M145 0v854h111l350 -500l350 500h111v-854h-133v614l-328 -475l-327 475v-614h-134z" />
<glyph unicode="n" horiz-adv-x="1038" d="M147 0v854h70l543 -600v600h131v-854h-70l-542 598v-598h-132z" />
<glyph unicode="o" horiz-adv-x="1189" d="M72 426q0 94 37.5 177t106.5 143.5t165 95.5t213 35q119 0 215 -35t164.5 -95.5t106.5 -142.5t38 -178t-38 -178t-106.5 -143.5t-164.5 -96.5t-215 -35q-117 0 -213 35t-165 96.5t-106.5 144.5t-37.5 177zM209 426q0 -70 27.5 -129t78 -103t121 -70t158.5 -26t159.5 26 t123 70t78 104t26.5 128t-27.5 128t-78 104t-122 70t-159.5 26t-158.5 -26t-121 -70t-78 -103t-27.5 -129z" />
<glyph unicode="p" horiz-adv-x="1089" d="M147 0v854h621q133 0 206 -62.5t73 -175.5q0 -102 -70 -172.5t-195 -70.5h-501v-373h-134zM281 498h487q70 0 105.5 30.5t35.5 85.5q0 53 -34.5 84t-100.5 31h-493v-231z" />
<glyph unicode="q" horiz-adv-x="1189" d="M72 426q0 94 37.5 177t106.5 143.5t165 95.5t213 35q119 0 215 -35t164.5 -95.5t106.5 -142.5t38 -178q0 -143 -76.5 -244.5t-193.5 -156.5l117 -142h-164l-84 101q-47 -4 -77 -7.5t-46 -3.5q-117 0 -213 35t-165 96.5t-106.5 144.5t-37.5 177zM209 426q0 -68 26.5 -127 t75.5 -104t119 -71t154 -26q10 0 18 1t19 1l-86 105h161l68 -82q106 45 161.5 125t55.5 178q0 68 -27.5 128t-78 104t-122 70t-159.5 26t-158.5 -26t-121 -70t-78 -103t-27.5 -129z" />
<glyph unicode="r" horiz-adv-x="1110" d="M147 0v852h588q131 0 205 -62.5t74 -175.5q0 -90 -56.5 -156.5t-154.5 -82.5l237 -375h-145l-242 373h-372v-373h-134zM281 498h454q141 0 142 116q0 115 -142 115h-454v-231z" />
<glyph unicode="s" horiz-adv-x="1013" d="M72 109l65 112q92 -61 195.5 -93t195.5 -32q121 0 187.5 48.5t66.5 117.5q0 76 -65.5 110t-200.5 38q-98 2 -174 11t-128 33.5t-78.5 67.5t-26.5 111q0 106 93 175t259 69q219 0 413 -123l-67 -111q-84 55 -175 84t-173 29q-102 0 -158.5 -35t-56.5 -88q0 -61 65.5 -83 t200.5 -22q412 0 412 -274q0 -57 -26 -108.5t-75 -89.5t-119.5 -60.5t-158.5 -22.5q-123 0 -245 35t-226 101z" />
<glyph unicode="t" horiz-adv-x="829" d="M-12 735v119h854v-119h-361v-735h-133v735h-360z" />
<glyph unicode="u" horiz-adv-x="1138" d="M147 270v582h134v-547q0 -63 13 -103t46 -63.5t89 -33t140 -9.5t140.5 9.5t89 33t46 63.5t13.5 103v547h133v-582q0 -160 -100 -228.5t-324 -68.5q-225 0 -322.5 70t-97.5 227z" />
<glyph unicode="v" horiz-adv-x="966" d="M20 854h142l321 -639l316 639h147l-428 -854h-69z" />
<glyph unicode="w" horiz-adv-x="1255" d="M18 854h132l208 -625l215 625h111l215 -625l209 625h131l-287 -854h-96l-227 657l-228 -657h-94z" />
<glyph unicode="x" horiz-adv-x="923" d="M20 0l359 428l-354 426h161l275 -328l274 328h164l-356 -422l360 -432h-162l-280 334l-283 -334h-158z" />
<glyph unicode="y" horiz-adv-x="915" d="M2 854h172l283 -303l278 303h178l-391 -416v-438h-131v436z" />
<glyph unicode="z" horiz-adv-x="894" d="M35 0l553 729h-504v125h750l-558 -731h553v-123h-794z" />
<glyph unicode="{" d="M174 477v109q12 0 23.5 -1t21.5 -1q139 0 195.5 64.5t56.5 215.5v242q0 104 13.5 175t50 115t102 62.5t170.5 18.5h47v-107h-37q-72 0 -115 -13.5t-67.5 -43t-32.5 -77.5t-8 -120v-242q0 -74 -8 -131t-29.5 -98t-59.5 -68.5t-100 -46.5q61 -18 99.5 -45.5t60 -69.5 t29.5 -98.5t8 -130.5v-241q0 -72 8 -120t30.5 -78t65.5 -43t111 -13q10 0 21.5 1t23.5 1v-107h-47q-104 0 -170 18.5t-102.5 61.5t-50 113.5t-13.5 175.5v244q0 152 -56.5 216t-195.5 64q-10 0 -21.5 -1t-23.5 -1z" />
<glyph unicode="|" d="M459 -483v2048h108v-2048h-108z" />
<glyph unicode="}" d="M172 -307h39q70 0 113 12t67.5 41t32.5 78t8 121v241q0 74 7 130.5t28.5 98.5t60.5 69.5t101 45.5q-61 18 -100.5 46t-61 69t-28.5 98.5t-7 130.5v242q0 72 -8 121t-30.5 79t-65.5 43t-111 13q-10 0 -21.5 -1t-23.5 -1v107h47q104 0 170 -18.5t102.5 -62.5t50 -115 t13.5 -175v-242q0 -152 56.5 -216t195.5 -64q10 0 21.5 1t23.5 1v-109q-12 0 -23.5 1t-21.5 1q-139 0 -195.5 -64.5t-56.5 -215.5v-244q0 -104 -13.5 -175t-50 -114t-102 -61.5t-170.5 -18.5h-47v107z" />
<glyph unicode="~" horiz-adv-x="1705" d="M178 471v113q211 145 387 145q84 0 152.5 -21.5t136.5 -45.5q74 -27 143.5 -49.5t145.5 -22.5q92 0 185 41t202 119v-113q-201 -143 -387 -143q-84 0 -153.5 22.5t-135.5 44.5q-72 27 -141.5 48.5t-147.5 21.5q-92 0 -184 -41t-203 -119z" />
<glyph unicode="&#xa1;" horiz-adv-x="681" d="M258 1038q0 41 24.5 65.5t59.5 24.5t58.5 -24.5t23.5 -65.5t-23.5 -66.5t-58.5 -25.5t-59.5 25.5t-24.5 66.5zM266 -4l17 817h118l17 -817h-152z" />
<glyph unicode="&#xa2;" horiz-adv-x="1366" d="M264 522q0 88 29 166t81 136.5t125.5 96t164.5 50.5v268h118v-270q106 -10 188.5 -59.5t139.5 -135.5l-109 -76q-74 119 -219 146v-645q84 20 138.5 61t99.5 119l110 -74q-111 -203 -348 -231v-336h-118v334q-90 12 -164 51t-126 98.5t-81 136t-29 164.5zM401 522 q0 -125 70 -211t193 -110v645q-117 -20 -190 -109.5t-73 -214.5z" />
<glyph unicode="&#xa3;" horiz-adv-x="1366" d="M182 459v129h146l-11 86q-2 16 -3 29.5t-1 27.5q0 160 107.5 252t298.5 92q135 0 257 -48t238 -138l-81 -107q-115 80 -214.5 122t-195.5 42q-127 0 -200.5 -63.5t-73.5 -167.5q0 -14 1 -31.5t3 -38.5l6 -57h342v-129h-330l29 -332h719v-127h-981l8 127h121l-29 332h-156 z" />
<glyph unicode="&#xa4;" horiz-adv-x="1241" d="M90 420l205 207q-43 59 -66.5 122.5t-23.5 135.5t23.5 136t66.5 124l-205 205l66 65l204 -205q119 90 261 90q147 0 262 -90l204 205l66 -65l-205 -205q88 -119 88 -260q0 -139 -88 -258l205 -207l-66 -66l-204 205q-119 -90 -262 -90q-139 0 -261 90l-204 -205zM297 887 q0 -68 25.5 -126.5t70.5 -103.5t103.5 -70.5t126.5 -25.5t126 25.5t102 70.5t68.5 104.5t24.5 125.5t-24.5 124t-68.5 102t-102.5 69.5t-125.5 25.5q-68 0 -126.5 -25.5t-103.5 -69.5t-70.5 -102.5t-25.5 -123.5z" />
<glyph unicode="&#xa5;" horiz-adv-x="1290" d="M94 1073h168l383 -424l381 424h170l-285 -313h263v-92h-343l-108 -115h451v-92h-463v-461h-133v461h-461v92h446l-102 115h-344v92h260z" />
<glyph unicode="&#xa6;" d="M459 -350v758h108v-758h-108zM459 674v758h108v-758h-108z" />
<glyph unicode="&#xa7;" d="M180 514q0 131 137 221q-70 57 -69 154q0 104 70.5 171.5t185.5 67.5q123 0 194.5 -64.5t71.5 -178.5v-8h-131q-2 63 -39 99t-96 36q-57 0 -89 -29t-32 -76q0 -43 28.5 -72.5t86.5 -60.5l190 -102q78 -41 116 -94.5t38 -128.5q0 -72 -39 -133.5t-103 -86.5 q80 -68 80 -166q0 -51 -20.5 -95t-57 -77.5t-88 -53t-112.5 -19.5q-119 0 -192.5 68.5t-73.5 185.5v4h131v-4q0 -66 38.5 -99.5t110.5 -33.5q59 0 95 28.5t36 79.5q0 53 -43 90t-129 84l-139 76q-156 86 -156 217zM317 557q0 -53 36 -85t102 -71l170 -98q37 23 56 56.5 t19 68.5q0 53 -34.5 84t-100.5 66l-166 94q-82 -47 -82 -115z" />
<glyph unicode="&#xa8;" d="M262 1147q0 37 26.5 63.5t63.5 26.5t62.5 -26.5t25.5 -63.5q0 -39 -25.5 -64.5t-62.5 -25.5t-63.5 25.5t-26.5 64.5zM584 1147q0 37 25.5 63.5t62.5 26.5t63.5 -26.5t26.5 -63.5q0 -39 -26.5 -64.5t-63.5 -25.5t-62.5 25.5t-25.5 64.5z" />
<glyph unicode="&#xa9;" horiz-adv-x="1705" d="M121 723q0 147 56 280.5t163 241.5q102 104 232 157.5t280 53.5t284 -55t238 -160q104 -104 157.5 -237.5t53.5 -280.5q0 -152 -53 -282t-158 -232q-109 -106 -243 -162.5t-279 -56.5t-277.5 55t-238.5 162q-104 104 -159.5 236t-55.5 280zM201 723q0 -129 49 -247 t143 -212t212 -143t247 -49t249 49t218 145q92 90 139 206t47 251q0 133 -48 251t-140 210q-94 94 -212 143t-253 49q-133 0 -249 -48t-208 -140q-96 -98 -145 -217t-49 -248zM469 727q0 104 28.5 187t81 141.5t124 89.5t157.5 31q135 0 226.5 -72t103.5 -189h-117 q-18 80 -74.5 124t-142.5 44q-121 0 -189.5 -93t-68.5 -269q0 -170 69.5 -262t188.5 -92q90 0 151.5 50t77.5 138h115q-6 -61 -33.5 -113.5t-73.5 -90.5t-108.5 -59.5t-134.5 -21.5q-174 0 -277.5 120t-103.5 337z" />
<glyph unicode="&#xaa;" horiz-adv-x="606" d="M-12 418l286 512h56l288 -512h-94l-73 131h-297l-72 -131h-94zM193 616h219l-109 197z" />
<glyph unicode="&#xab;" horiz-adv-x="829" d="M47 326v198l324 244v-145l-254 -197l254 -201v-141zM457 326v198l323 244v-145l-254 -197l254 -201v-141z" />
<glyph unicode="&#xac;" horiz-adv-x="1705" d="M254 758v100h1198v-502h-96v402h-1102z" />
<glyph unicode="&#xad;" horiz-adv-x="526" d="M47 489v121h432v-121h-432z" />
<glyph unicode="&#xae;" horiz-adv-x="1705" d="M121 723q0 145 56 279.5t163 242.5q102 104 232 157.5t280 53.5q152 0 285 -54t237 -161q104 -104 157.5 -237.5t53.5 -280.5q0 -152 -53 -282t-158 -232q-109 -106 -243 -162.5t-279 -56.5q-147 0 -279.5 55t-236.5 162q-104 104 -159.5 236t-55.5 280zM201 723 q0 -129 49 -247t143 -212t212 -143t247 -49t249 49t218 145q92 90 139 205t47 250t-47 253t-139 210q-94 94 -213 143t-254 49q-133 0 -248 -48t-207 -140q-96 -98 -146 -217t-50 -248zM565 313v844h309q176 0 262.5 -55t86.5 -178q0 -88 -53.5 -148.5t-145.5 -73.5 l188 -389h-145l-178 371h-197v-371h-127zM692 768h158q125 0 183.5 30.5t58.5 116.5t-58.5 121t-183.5 35h-158v-303z" />
<glyph unicode="&#xaf;" d="M256 1087v117h512v-117h-512z" />
<glyph unicode="&#xb0;" horiz-adv-x="673" d="M59 1174q0 57 21.5 108t59.5 89t89.5 59.5t108.5 21.5t107.5 -21.5t88 -59.5t59 -89t21.5 -108t-21.5 -107.5t-59 -88.5t-89 -60.5t-108.5 -22.5q-59 0 -109.5 21.5t-87.5 59.5t-58.5 88t-21.5 110zM129 1174q0 -43 16.5 -81t45 -66t66.5 -44t81 -16t81 16t65.5 44t44 66 t16.5 81t-16.5 80.5t-44 66.5t-65.5 45t-81 16t-81 -16t-66.5 -45t-45 -66.5t-16.5 -80.5z" />
<glyph unicode="&#xb1;" horiz-adv-x="1705" d="M254 51v99h1198v-99h-1198zM254 723v98h551v348h98v-348h549v-98h-549v-348h-98v348h-551z" />
<glyph unicode="&#xb2;" horiz-adv-x="901" d="M156 496q0 94 42 150t162 95q76 25 134.5 41.5t97.5 31.5t58.5 31.5t19.5 41.5q0 41 -46 69.5t-126 28.5q-70 0 -138.5 -25.5t-142.5 -72.5l-55 63q80 55 159.5 84t167.5 29q129 0 202 -52.5t73 -123.5q0 -41 -20.5 -68.5t-58.5 -48t-90 -37t-116 -37.5 q-59 -18 -102 -32.5t-72 -33t-43 -43t-14 -61.5v-15t2 -17h528v-76h-620q0 35 -1 53t-1 25z" />
<glyph unicode="&#xb3;" horiz-adv-x="901" d="M78 547l55 63q84 -70 161 -101.5t175 -31.5q125 0 194.5 42t69.5 95q0 113 -231 113h-31v76q12 -2 23.5 -2h21.5q84 0 124 19.5t40 66.5q0 41 -46 69.5t-130 28.5q-145 0 -283 -92l-55 68q150 102 342 102q125 0 195.5 -49t70.5 -127q0 -72 -63 -117q117 -47 116 -154 q0 -41 -24.5 -79.5t-70.5 -68.5t-110.5 -48.5t-146.5 -18.5q-121 0 -216 34t-181 112z" />
<glyph unicode="&#xb4;" d="M387 987l209 350h152l-269 -350h-92z" />
<glyph unicode="&#xb5;" horiz-adv-x="1110" d="M-111 -426l316 1491h139l-125 -592q-8 -35 -12 -69.5t-4 -69.5q0 -117 57 -180.5t168 -63.5q123 0 213 104.5t135 313.5l121 557h139l-164 -770q-10 -47 -16 -80t-6 -53q0 -66 68 -66h12t24 2l-20 -110q-23 -6 -45.5 -8.5t-40.5 -2.5q-137 0 -137 146v14 q-41 -78 -119 -120t-180 -42q-92 0 -161 40t-108 116l-114 -557h-140z" />
<glyph unicode="&#xb6;" d="M84 1130q0 76 27.5 140.5t79 110.5t124 72t162.5 26h463v-70h-127v-1409h-82v1409h-188v-1409h-82v782q-178 8 -277.5 103.5t-99.5 244.5z" />
<glyph unicode="&#xb7;" horiz-adv-x="681" d="M256 535q0 37 24.5 61.5t59.5 24.5t61.5 -25t26.5 -61q0 -35 -25.5 -60.5t-62.5 -25.5q-35 0 -59.5 25.5t-24.5 60.5z" />
<glyph unicode="&#xb8;" d="M272 -342q72 -16 130.5 -25.5t105.5 -9.5q131 0 131 90q0 55 -35 80t-108 25h-22.5t-24.5 -2v184h63v-111h20q106 0 162 -44t56 -128t-56.5 -130t-169.5 -46q-68 0 -129 12.5t-123 28.5v76z" />
<glyph unicode="&#xb9;" horiz-adv-x="901" d="M403 414v637h93v-637h-93z" />
<glyph unicode="&#xba;" horiz-adv-x="784" d="M47 674q0 57 24.5 106t69.5 86t108.5 57.5t141.5 20.5t142.5 -20.5t109.5 -57.5t69.5 -86t24.5 -106t-24.5 -107.5t-69.5 -87.5t-109.5 -57.5t-142.5 -20.5t-141.5 21.5t-108.5 58.5t-69.5 86t-24.5 107zM137 674q0 -84 68.5 -140.5t185.5 -56.5q119 0 187.5 56.5 t68.5 140.5q0 82 -69.5 139t-186.5 57t-185.5 -56t-68.5 -140z" />
<glyph unicode="&#xbb;" horiz-adv-x="829" d="M49 84v141l254 201l-254 197v145l324 -244v-198zM461 84v141l252 201l-252 197v145l321 -244v-198z" />
<glyph unicode="&#xbc;" horiz-adv-x="2062" d="M385 455v594h88v-594h-88zM518 -29l887 1102h137l-885 -1102h-139zM1274 141v74l530 373h86v-373h111v-74h-111v-141h-86v141h-530zM1407 215h397v279z" />
<glyph unicode="&#xbd;" horiz-adv-x="2062" d="M385 455v594h88v-594h-88zM518 -29l887 1102h137l-885 -1102h-139zM1350 74q0 88 41 140t155 87q72 23 127.5 39t92 30.5t56 30t19.5 37.5q0 37 -43 64.5t-121 27.5q-66 0 -131 -23.5t-137 -68.5l-51 60q150 104 311 104q123 0 192.5 -49t69.5 -117q0 -37 -19.5 -62.5 t-55 -45t-86 -34.5t-111.5 -34q-55 -16 -97 -30.5t-70 -32t-41 -40t-13 -57.5q0 -8 4 -28h502v-72h-590q-2 31 -3 49.5t-1 24.5z" />
<glyph unicode="&#xbe;" horiz-adv-x="2062" d="M74 580l53 57q78 -63 151.5 -93t170.5 -30q117 0 183 40t66 89q0 104 -219 105h-30v69h45q156 0 155 78q0 41 -44 67.5t-126 26.5q-137 0 -268 -86l-53 64q145 94 325 94q121 0 187.5 -46t66.5 -120q0 -66 -59 -109q113 -43 113 -141q0 -39 -24 -76t-68 -64.5t-106.5 -45 t-139.5 -17.5q-115 0 -206 33t-173 105zM518 -29l887 1102h137l-885 -1102h-139zM1274 141v74l530 373h86v-373h111v-74h-111v-141h-86v141h-530zM1407 215h397v279z" />
<glyph unicode="&#xbf;" horiz-adv-x="739" d="M53 231q0 49 19.5 89t58.5 77l174 170q41 41 41 121v143h137v-178q0 -70 -25.5 -106.5t-58.5 -69.5l-170 -170q-23 -23 -29.5 -41t-6.5 -47q0 -53 43 -88t116 -35q82 0 135.5 40t69.5 114l127 -47q-61 -231 -332 -232q-141 0 -220 71t-79 189zM328 1038q0 41 24.5 65.5 t59.5 24.5t59.5 -24.5t24.5 -65.5t-24.5 -66.5t-59.5 -25.5t-59.5 25.5t-24.5 66.5z" />
<glyph unicode="&#xc0;" horiz-adv-x="1204" d="M0 0l541 1104h114l547 -1104h-149l-150 297h-610l-146 -297h-147zM356 426h486l-244 489zM366 1589h152l209 -350h-92z" />
<glyph unicode="&#xc1;" horiz-adv-x="1204" d="M0 0l541 1104h114l547 -1104h-149l-150 297h-610l-146 -297h-147zM356 426h486l-244 489zM477 1239l209 350h152l-269 -350h-92z" />
<glyph unicode="&#xc2;" horiz-adv-x="1204" d="M0 0l541 1104h114l547 -1104h-149l-150 297h-610l-146 -297h-147zM326 1239l200 350h152l200 -350h-92l-184 264l-184 -264h-92zM356 426h486l-244 489z" />
<glyph unicode="&#xc3;" horiz-adv-x="1204" d="M0 0l541 1104h114l547 -1104h-149l-150 297h-610l-146 -297h-147zM313 1299q23 90 73 136t122 46q31 0 53 -8l96 -31q33 -12 56 -12q35 0 57 18t39 55h82q-53 -182 -191 -182q-29 0 -65 10l-96 31q-10 4 -23.5 6t-30.5 2q-61 0 -92 -71h-80zM356 426h486l-244 489z" />
<glyph unicode="&#xc4;" horiz-adv-x="1204" d="M0 0l541 1104h114l547 -1104h-149l-150 297h-610l-146 -297h-147zM352 1399q0 37 26.5 63.5t63.5 26.5t62.5 -26.5t25.5 -63.5q0 -39 -25.5 -64.5t-62.5 -25.5t-63.5 25.5t-26.5 64.5zM356 426h486l-244 489zM674 1399q0 37 25.5 63.5t62.5 26.5t63.5 -26.5t26.5 -63.5 q0 -39 -26.5 -64.5t-63.5 -25.5t-62.5 25.5t-25.5 64.5z" />
<glyph unicode="&#xc5;" horiz-adv-x="1204" d="M0 0l541 1104h114l547 -1104h-149l-150 297h-610l-146 -297h-147zM356 426h486l-244 489zM358 1456q0 49 18.5 93t51.5 77t77 51.5t95 18.5q49 0 93 -18.5t77 -51.5t51.5 -77t18.5 -93t-18.5 -93t-51.5 -77t-77 -51t-93 -18q-51 0 -95 18t-77 51t-51.5 77t-18.5 93z M449 1456q0 -63 44 -107t107 -44q61 0 105.5 44t44.5 107t-44 106.5t-106 43.5q-63 0 -107 -43.5t-44 -106.5z" />
<glyph unicode="&#xc6;" horiz-adv-x="1759" d="M-51 0l641 1104h1126v-127h-731v-324h445v-127h-445v-399h778v-127h-915v297h-580l-174 -297h-145zM340 426h508v551h-186z" />
<glyph unicode="&#xc7;" horiz-adv-x="1236" d="M78 549q0 125 43 231.5t118.5 184t181 120.5t228.5 43q154 0 280 -67.5t204 -190.5l-115 -82q-53 100 -150.5 155.5t-218.5 55.5q-92 0 -171 -33.5t-136 -93t-90 -142.5t-33 -181t33 -180t90 -142.5t136 -93.5t171 -33q129 0 230.5 63.5t167.5 188.5l110 -82 q-78 -145 -209 -222t-299 -77q-123 0 -228.5 43t-181 120t-118.5 182.5t-43 232.5zM405 -342q72 -16 130.5 -25.5t105.5 -9.5q131 0 131 90q0 55 -35 80t-108 25h-22.5t-24.5 -2v184h63v-111h20q106 0 162 -44t56 -128t-56.5 -130t-169.5 -46q-68 0 -129 12.5t-123 28.5v76z " />
<glyph unicode="&#xc8;" horiz-adv-x="1118" d="M166 0v1104h868v-127h-731v-324h442v-127h-442v-399h776v-127h-913zM380 1589h152l209 -350h-92z" />
<glyph unicode="&#xc9;" horiz-adv-x="1118" d="M166 0v1104h868v-127h-731v-324h442v-127h-442v-399h776v-127h-913zM491 1239l209 350h152l-269 -350h-92z" />
<glyph unicode="&#xca;" horiz-adv-x="1118" d="M166 0v1104h868v-127h-731v-324h442v-127h-442v-399h776v-127h-913zM340 1239l200 350h152l200 -350h-92l-184 264l-184 -264h-92z" />
<glyph unicode="&#xcb;" horiz-adv-x="1118" d="M166 0v1104h868v-127h-731v-324h442v-127h-442v-399h776v-127h-913zM366 1399q0 37 26.5 63.5t63.5 26.5t62.5 -26.5t25.5 -63.5q0 -39 -25.5 -64.5t-62.5 -25.5t-63.5 25.5t-26.5 64.5zM688 1399q0 37 25.5 63.5t62.5 26.5t63.5 -26.5t26.5 -63.5q0 -39 -26.5 -64.5 t-63.5 -25.5t-62.5 25.5t-25.5 64.5z" />
<glyph unicode="&#xcc;" horiz-adv-x="473" d="M4 1589h152l209 -350h-92zM168 -4v1114h139v-1114h-139z" />
<glyph unicode="&#xcd;" horiz-adv-x="473" d="M115 1239l209 350h152l-269 -350h-92zM168 -4v1114h139v-1114h-139z" />
<glyph unicode="&#xce;" horiz-adv-x="473" d="M-36 1239l200 350h152l200 -350h-92l-184 264l-184 -264h-92zM168 -4v1114h139v-1114h-139z" />
<glyph unicode="&#xcf;" horiz-adv-x="473" d="M-10 1399q0 37 26.5 63.5t63.5 26.5t62.5 -26.5t25.5 -63.5q0 -39 -25.5 -64.5t-62.5 -25.5t-63.5 25.5t-26.5 64.5zM168 -4v1114h139v-1114h-139zM312 1399q0 37 25.5 63.5t62.5 26.5t63.5 -26.5t26.5 -63.5q0 -39 -26.5 -64.5t-63.5 -25.5t-62.5 25.5t-25.5 64.5z" />
<glyph unicode="&#xd0;" horiz-adv-x="1370" d="M2 547v115h238v442h473q135 0 241.5 -42t182 -116t115.5 -176t40 -221t-39 -219.5t-112.5 -174t-182 -114.5t-245.5 -41h-473v547h-238zM377 127h336q106 0 188 31.5t137.5 88t84 134.5t28.5 170t-29.5 171t-86 135t-138.5 88t-184 32h-336v-315h387v-115h-387v-420z" />
<glyph unicode="&#xd1;" horiz-adv-x="1255" d="M166 0v1104h72l716 -825v825h138v-1104h-70l-719 825v-825h-137zM340 1299q23 90 73 136t122 46q31 0 53 -8l96 -31q33 -12 56 -12q35 0 57 18t39 55h82q-53 -182 -191 -182q-29 0 -65 10l-96 31q-10 4 -23.5 6t-30.5 2q-61 0 -92 -71h-80z" />
<glyph unicode="&#xd2;" horiz-adv-x="1298" d="M78 549q0 125 43 231.5t118.5 184t181 120.5t228.5 43t228.5 -43t182.5 -120.5t120 -184t43 -231.5q0 -127 -43 -232.5t-120 -182.5t-182.5 -120t-228.5 -43t-228.5 43t-181 120t-118.5 182.5t-43 232.5zM219 549q0 -98 33 -180t90 -142.5t136 -93.5t171 -33t171 34 t136.5 93.5t90 141.5t32.5 180t-32.5 181t-90 142.5t-136.5 93t-171 33.5t-171 -33.5t-136 -93t-90 -142.5t-33 -181zM413 1589h152l209 -350h-92z" />
<glyph unicode="&#xd3;" horiz-adv-x="1298" d="M78 549q0 125 43 231.5t118.5 184t181 120.5t228.5 43t228.5 -43t182.5 -120.5t120 -184t43 -231.5q0 -127 -43 -232.5t-120 -182.5t-182.5 -120t-228.5 -43t-228.5 43t-181 120t-118.5 182.5t-43 232.5zM219 549q0 -98 33 -180t90 -142.5t136 -93.5t171 -33t171 34 t136.5 93.5t90 141.5t32.5 180t-32.5 181t-90 142.5t-136.5 93t-171 33.5t-171 -33.5t-136 -93t-90 -142.5t-33 -181zM524 1239l209 350h152l-269 -350h-92z" />
<glyph unicode="&#xd4;" horiz-adv-x="1298" d="M78 549q0 125 43 231.5t118.5 184t181 120.5t228.5 43t228.5 -43t182.5 -120.5t120 -184t43 -231.5q0 -127 -43 -232.5t-120 -182.5t-182.5 -120t-228.5 -43t-228.5 43t-181 120t-118.5 182.5t-43 232.5zM219 549q0 -98 33 -180t90 -142.5t136 -93.5t171 -33t171 34 t136.5 93.5t90 141.5t32.5 180t-32.5 181t-90 142.5t-136.5 93t-171 33.5t-171 -33.5t-136 -93t-90 -142.5t-33 -181zM373 1239l200 350h152l200 -350h-92l-184 264l-184 -264h-92z" />
<glyph unicode="&#xd5;" horiz-adv-x="1298" d="M78 549q0 125 43 231.5t118.5 184t181 120.5t228.5 43t228.5 -43t182.5 -120.5t120 -184t43 -231.5q0 -127 -43 -232.5t-120 -182.5t-182.5 -120t-228.5 -43t-228.5 43t-181 120t-118.5 182.5t-43 232.5zM219 549q0 -98 33 -180t90 -142.5t136 -93.5t171 -33t171 34 t136.5 93.5t90 141.5t32.5 180t-32.5 181t-90 142.5t-136.5 93t-171 33.5t-171 -33.5t-136 -93t-90 -142.5t-33 -181zM360 1299q23 90 73 136t122 46q31 0 53 -8l96 -31q33 -12 56 -12q35 0 57 18t39 55h82q-53 -182 -191 -182q-29 0 -65 10l-96 31q-10 4 -23.5 6t-30.5 2 q-61 0 -92 -71h-80z" />
<glyph unicode="&#xd6;" horiz-adv-x="1298" d="M78 549q0 125 43 231.5t118.5 184t181 120.5t228.5 43t228.5 -43t182.5 -120.5t120 -184t43 -231.5q0 -127 -43 -232.5t-120 -182.5t-182.5 -120t-228.5 -43t-228.5 43t-181 120t-118.5 182.5t-43 232.5zM219 549q0 -98 33 -180t90 -142.5t136 -93.5t171 -33t171 34 t136.5 93.5t90 141.5t32.5 180t-32.5 181t-90 142.5t-136.5 93t-171 33.5t-171 -33.5t-136 -93t-90 -142.5t-33 -181zM399 1399q0 37 26.5 63.5t63.5 26.5t62.5 -26.5t25.5 -63.5q0 -39 -25.5 -64.5t-62.5 -25.5t-63.5 25.5t-26.5 64.5zM721 1399q0 37 25.5 63.5t62.5 26.5 t63.5 -26.5t26.5 -63.5q0 -39 -26.5 -64.5t-63.5 -25.5t-62.5 25.5t-25.5 64.5z" />
<glyph unicode="&#xd7;" horiz-adv-x="1705" d="M305 129l481 481l-481 482l70 69l481 -481l481 481l70 -69l-481 -482l481 -481l-70 -70l-481 482l-481 -482z" />
<glyph unicode="&#xd8;" horiz-adv-x="1298" d="M78 549q0 125 43 231.5t118.5 184t181 120.5t228.5 43q150 0 285 -71l70 100h157l-123 -174q90 -78 137.5 -190.5t47.5 -243.5q0 -127 -43 -232.5t-120 -182.5t-182.5 -120t-228.5 -43q-150 0 -284 72l-70 -100h-158l123 174q-90 78 -136 189.5t-46 242.5zM219 549 q0 -96 30 -173t93 -149l516 721q-102 51 -209 51q-92 0 -171 -33.5t-136 -93t-90 -142.5t-33 -181zM440 150q53 -27 103.5 -38.5t105.5 -11.5q92 0 171 34t136.5 93.5t90 141.5t32.5 180q0 94 -28.5 172t-92.5 149z" />
<glyph unicode="&#xd9;" horiz-adv-x="1185" d="M137 352v752h137v-715q0 -86 14.5 -142.5t50.5 -88t97.5 -45t155.5 -13.5t155.5 13.5t97.5 45t50 88t14 142.5v715h138v-752q0 -203 -105.5 -292t-349.5 -89t-349.5 89.5t-105.5 291.5zM358 1589h152l209 -350h-92z" />
<glyph unicode="&#xda;" horiz-adv-x="1185" d="M137 352v752h137v-715q0 -86 14.5 -142.5t50.5 -88t97.5 -45t155.5 -13.5t155.5 13.5t97.5 45t50 88t14 142.5v715h138v-752q0 -203 -105.5 -292t-349.5 -89t-349.5 89.5t-105.5 291.5zM469 1239l209 350h152l-269 -350h-92z" />
<glyph unicode="&#xdb;" horiz-adv-x="1185" d="M137 352v752h137v-715q0 -86 14.5 -142.5t50.5 -88t97.5 -45t155.5 -13.5t155.5 13.5t97.5 45t50 88t14 142.5v715h138v-752q0 -203 -105.5 -292t-349.5 -89t-349.5 89.5t-105.5 291.5zM318 1239l200 350h152l200 -350h-92l-184 264l-184 -264h-92z" />
<glyph unicode="&#xdc;" horiz-adv-x="1185" d="M137 352v752h137v-715q0 -86 14.5 -142.5t50.5 -88t97.5 -45t155.5 -13.5t155.5 13.5t97.5 45t50 88t14 142.5v715h138v-752q0 -203 -105.5 -292t-349.5 -89t-349.5 89.5t-105.5 291.5zM344 1399q0 37 26.5 63.5t63.5 26.5t62.5 -26.5t25.5 -63.5q0 -39 -25.5 -64.5 t-62.5 -25.5t-63.5 25.5t-26.5 64.5zM666 1399q0 37 25.5 63.5t62.5 26.5t63.5 -26.5t26.5 -63.5q0 -39 -26.5 -64.5t-63.5 -25.5t-62.5 25.5t-25.5 64.5z" />
<glyph unicode="&#xdd;" horiz-adv-x="929" d="M-102 1104h172l395 -436l393 436h174l-500 -553v-551h-137v553zM342 1239l209 350h152l-269 -350h-92z" />
<glyph unicode="&#xde;" horiz-adv-x="1200" d="M160 0v1104h137v-215h496q164 0 255 -81t91 -226q0 -66 -21.5 -123.5t-63.5 -99.5t-103.5 -66.5t-139.5 -24.5h-514v-268h-137zM297 395h487q104 0 157.5 47t53.5 136q0 86 -52 135t-152 49h-494v-367z" />
<glyph unicode="&#xdf;" horiz-adv-x="2027" d="M72 109l65 112q92 -61 195.5 -93t195.5 -32q121 0 187.5 48.5t66.5 117.5q0 76 -65.5 110t-200.5 38q-98 2 -174 11t-128 33.5t-78.5 67.5t-26.5 111q0 106 93 175t259 69q219 0 413 -123l-67 -111q-84 55 -175 84t-173 29q-102 0 -158.5 -35t-56.5 -88q0 -61 65.5 -83 t200.5 -22q412 0 412 -274q0 -57 -26 -108.5t-75 -89.5t-119.5 -60.5t-158.5 -22.5q-123 0 -245 35t-226 101zM1086 109l65 112q92 -61 195.5 -93t195.5 -32q121 0 187.5 48.5t66.5 117.5q0 76 -65.5 110t-200.5 38q-98 2 -174 11t-128 33.5t-78.5 67.5t-26.5 111 q0 106 93 175t259 69q219 0 413 -123l-67 -111q-84 55 -175 84t-173 29q-102 0 -158.5 -35t-56.5 -88q0 -61 65.5 -83t200.5 -22q412 0 412 -274q0 -57 -26 -108.5t-75 -89.5t-119.5 -60.5t-158.5 -22.5q-123 0 -245 35t-226 101z" />
<glyph unicode="&#xe0;" horiz-adv-x="919" d="M-18 0l434 854h84l438 -854h-143l-111 217h-451l-110 -217h-141zM227 1337h152l209 -350h-92zM291 330h334l-166 327z" />
<glyph unicode="&#xe1;" horiz-adv-x="919" d="M-18 0l434 854h84l438 -854h-143l-111 217h-451l-110 -217h-141zM291 330h334l-166 327zM338 987l209 350h152l-269 -350h-92z" />
<glyph unicode="&#xe2;" horiz-adv-x="919" d="M-18 0l434 854h84l438 -854h-143l-111 217h-451l-110 -217h-141zM187 987l200 350h152l200 -350h-92l-184 264l-184 -264h-92zM291 330h334l-166 327z" />
<glyph unicode="&#xe3;" horiz-adv-x="919" d="M-18 0l434 854h84l438 -854h-143l-111 217h-451l-110 -217h-141zM174 1047q23 90 73 136t122 46q31 0 53 -8l96 -31q33 -12 56 -12q35 0 57 18t39 55h82q-53 -182 -191 -182q-29 0 -65 10l-96 31q-10 4 -23.5 6t-30.5 2q-61 0 -92 -71h-80zM291 330h334l-166 327z" />
<glyph unicode="&#xe4;" horiz-adv-x="919" d="M-18 0l434 854h84l438 -854h-143l-111 217h-451l-110 -217h-141zM213 1147q0 37 26.5 63.5t63.5 26.5t62.5 -26.5t25.5 -63.5q0 -39 -25.5 -64.5t-62.5 -25.5t-63.5 25.5t-26.5 64.5zM291 330h334l-166 327zM535 1147q0 37 25.5 63.5t62.5 26.5t63.5 -26.5t26.5 -63.5 q0 -39 -26.5 -64.5t-63.5 -25.5t-62.5 25.5t-25.5 64.5z" />
<glyph unicode="&#xe5;" horiz-adv-x="919" d="M-18 0l434 854h84l438 -854h-143l-111 217h-451l-110 -217h-141zM223 1210q0 49 18.5 93.5t50.5 77t76 51t95 18.5q49 0 93 -18.5t77 -51t52.5 -76.5t19.5 -94q0 -49 -19.5 -93t-52.5 -76.5t-77 -52t-93 -19.5q-51 0 -95 19.5t-76 52t-50.5 76.5t-18.5 93zM291 330h334 l-166 327zM313 1208q0 -63 43.5 -106t106.5 -43q61 0 105.5 43t44.5 106t-44.5 107.5t-105.5 44.5q-63 0 -106.5 -44.5t-43.5 -107.5z" />
<glyph unicode="&#xe6;" horiz-adv-x="1658" d="M-16 0l491 854h1106v-125h-672v-213h437v-123h-437v-270h705v-123h-838v217h-524l-125 -217h-143zM322 330h454v399h-225z" />
<glyph unicode="&#xe7;" horiz-adv-x="1128" d="M72 424q0 96 37.5 179t106.5 143.5t163 95.5t209 35q141 0 254.5 -52.5t183.5 -148.5l-106 -74q-53 72 -138.5 112t-193.5 40q-84 0 -152.5 -24.5t-120 -69t-79 -104.5t-27.5 -130t28.5 -130t79 -104.5t120 -69t151.5 -24.5q225 0 354 185l107 -74q-72 -115 -190 -175.5 t-271 -60.5q-115 0 -209 34t-163 94.5t-106.5 143.5t-37.5 179zM325 -342q72 -16 130.5 -25.5t105.5 -9.5q131 0 131 90q0 55 -35 80t-108 25h-22.5t-24.5 -2v184h63v-111h20q106 0 162 -44t56 -128t-56.5 -130t-169.5 -46q-68 0 -129 12.5t-123 28.5v76z" />
<glyph unicode="&#xe8;" horiz-adv-x="1028" d="M145 0v854h801v-125h-667v-213h438v-123h-438v-270h704v-123h-838zM317 1337h152l209 -350h-92z" />
<glyph unicode="&#xe9;" horiz-adv-x="1028" d="M145 0v854h801v-125h-667v-213h438v-123h-438v-270h704v-123h-838zM428 987l209 350h152l-269 -350h-92z" />
<glyph unicode="&#xea;" horiz-adv-x="1028" d="M145 0v854h801v-125h-667v-213h438v-123h-438v-270h704v-123h-838zM277 987l200 350h152l200 -350h-92l-184 264l-184 -264h-92z" />
<glyph unicode="&#xeb;" horiz-adv-x="1028" d="M145 0v854h801v-125h-667v-213h438v-123h-438v-270h704v-123h-838zM303 1147q0 37 26.5 63.5t63.5 26.5t62.5 -26.5t25.5 -63.5q0 -39 -25.5 -64.5t-62.5 -25.5t-63.5 25.5t-26.5 64.5zM625 1147q0 37 25.5 63.5t62.5 26.5t63.5 -26.5t26.5 -63.5q0 -39 -26.5 -64.5 t-63.5 -25.5t-62.5 25.5t-25.5 64.5z" />
<glyph unicode="&#xec;" horiz-adv-x="432" d="M-17 1337h152l209 -350h-92zM147 -2v858h136v-858h-136z" />
<glyph unicode="&#xed;" horiz-adv-x="432" d="M94 987l209 350h152l-269 -350h-92zM147 -2v858h136v-858h-136z" />
<glyph unicode="&#xee;" horiz-adv-x="432" d="M-57 987l200 350h152l200 -350h-92l-184 264l-184 -264h-92zM147 -2v858h136v-858h-136z" />
<glyph unicode="&#xef;" horiz-adv-x="432" d="M-31 1147q0 37 26.5 63.5t63.5 26.5t62.5 -26.5t25.5 -63.5q0 -39 -25.5 -64.5t-62.5 -25.5t-63.5 25.5t-26.5 64.5zM147 -2v858h136v-858h-136zM291 1147q0 37 25.5 63.5t62.5 26.5t63.5 -26.5t26.5 -63.5q0 -39 -26.5 -64.5t-63.5 -25.5t-62.5 25.5t-25.5 64.5z" />
<glyph unicode="&#xf1;" horiz-adv-x="1038" d="M147 0v854h70l543 -600v600h131v-854h-70l-542 598v-598h-132zM231 1047q23 90 73 136t122 46q31 0 53 -8l96 -31q33 -12 56 -12q35 0 57 18t39 55h82q-53 -182 -191 -182q-29 0 -65 10l-96 31q-10 4 -23.5 6t-30.5 2q-61 0 -92 -71h-80z" />
<glyph unicode="&#xf2;" horiz-adv-x="1189" d="M72 426q0 94 37.5 177t106.5 143.5t165 95.5t213 35q119 0 215 -35t164.5 -95.5t106.5 -142.5t38 -178t-38 -178t-106.5 -143.5t-164.5 -96.5t-215 -35q-117 0 -213 35t-165 96.5t-106.5 144.5t-37.5 177zM209 426q0 -70 27.5 -129t78 -103t121 -70t158.5 -26t159.5 26 t123 70t78 104t26.5 128t-27.5 128t-78 104t-122 70t-159.5 26t-158.5 -26t-121 -70t-78 -103t-27.5 -129zM360 1337h152l209 -350h-92z" />
<glyph unicode="&#xf3;" horiz-adv-x="1189" d="M72 426q0 94 37.5 177t106.5 143.5t165 95.5t213 35q119 0 215 -35t164.5 -95.5t106.5 -142.5t38 -178t-38 -178t-106.5 -143.5t-164.5 -96.5t-215 -35q-117 0 -213 35t-165 96.5t-106.5 144.5t-37.5 177zM209 426q0 -70 27.5 -129t78 -103t121 -70t158.5 -26t159.5 26 t123 70t78 104t26.5 128t-27.5 128t-78 104t-122 70t-159.5 26t-158.5 -26t-121 -70t-78 -103t-27.5 -129zM471 987l209 350h152l-269 -350h-92z" />
<glyph unicode="&#xf4;" horiz-adv-x="1189" d="M72 426q0 94 37.5 177t106.5 143.5t165 95.5t213 35q119 0 215 -35t164.5 -95.5t106.5 -142.5t38 -178t-38 -178t-106.5 -143.5t-164.5 -96.5t-215 -35q-117 0 -213 35t-165 96.5t-106.5 144.5t-37.5 177zM209 426q0 -70 27.5 -129t78 -103t121 -70t158.5 -26t159.5 26 t123 70t78 104t26.5 128t-27.5 128t-78 104t-122 70t-159.5 26t-158.5 -26t-121 -70t-78 -103t-27.5 -129zM320 987l200 350h152l200 -350h-92l-184 264l-184 -264h-92z" />
<glyph unicode="&#xf5;" horiz-adv-x="1189" d="M72 426q0 94 37.5 177t106.5 143.5t165 95.5t213 35q119 0 215 -35t164.5 -95.5t106.5 -142.5t38 -178t-38 -178t-106.5 -143.5t-164.5 -96.5t-215 -35q-117 0 -213 35t-165 96.5t-106.5 144.5t-37.5 177zM209 426q0 -70 27.5 -129t78 -103t121 -70t158.5 -26t159.5 26 t123 70t78 104t26.5 128t-27.5 128t-78 104t-122 70t-159.5 26t-158.5 -26t-121 -70t-78 -103t-27.5 -129zM307 1047q23 90 73 136t122 46q31 0 53 -8l96 -31q33 -12 56 -12q35 0 57 18t39 55h82q-53 -182 -191 -182q-29 0 -65 10l-96 31q-10 4 -23.5 6t-30.5 2 q-61 0 -92 -71h-80z" />
<glyph unicode="&#xf6;" horiz-adv-x="1189" d="M72 426q0 94 37.5 177t106.5 143.5t165 95.5t213 35q119 0 215 -35t164.5 -95.5t106.5 -142.5t38 -178t-38 -178t-106.5 -143.5t-164.5 -96.5t-215 -35q-117 0 -213 35t-165 96.5t-106.5 144.5t-37.5 177zM209 426q0 -70 27.5 -129t78 -103t121 -70t158.5 -26t159.5 26 t123 70t78 104t26.5 128t-27.5 128t-78 104t-122 70t-159.5 26t-158.5 -26t-121 -70t-78 -103t-27.5 -129zM346 1147q0 37 26.5 63.5t63.5 26.5t62.5 -26.5t25.5 -63.5q0 -39 -25.5 -64.5t-62.5 -25.5t-63.5 25.5t-26.5 64.5zM668 1147q0 37 25.5 63.5t62.5 26.5t63.5 -26.5 t26.5 -63.5q0 -39 -26.5 -64.5t-63.5 -25.5t-62.5 25.5t-25.5 64.5z" />
<glyph unicode="&#xf7;" horiz-adv-x="1705" d="M254 561v98h1198v-98h-1198zM748 258q0 45 31.5 76t74.5 31q45 0 76 -31t31 -76q0 -43 -30 -74.5t-77 -31.5q-45 0 -75.5 30.5t-30.5 75.5zM748 963q0 45 31.5 76.5t74.5 31.5q45 0 76 -31.5t31 -76.5q0 -43 -30 -75t-77 -32t-76.5 31t-29.5 76z" />
<glyph unicode="&#xf8;" horiz-adv-x="1093" d="M63 -39l138 158q-59 68 -86 143.5t-27 163.5q0 98 35 180t96.5 142.5t145.5 94.5t182 34q72 0 133 -16.5t123 -53.5l69 84h158l-137 -160q59 -68 86 -142.5t27 -162.5q0 -98 -35 -181t-96.5 -143.5t-145.5 -94.5t-182 -34q-72 0 -133.5 16.5t-122.5 53.5l-70 -82h-158z M221 426q0 -117 66 -209l436 498q-41 27 -84 37t-92 10q-70 0 -129.5 -25.5t-103.5 -69.5t-68.5 -105.5t-24.5 -135.5zM373 137q41 -25 83 -35t91 -10q72 0 132 24.5t103 69.5t67.5 106.5t24.5 133.5q0 123 -67 211z" />
<glyph unicode="&#xf9;" horiz-adv-x="1138" d="M147 270v582h134v-547q0 -63 13 -103t46 -63.5t89 -33t140 -9.5t140.5 9.5t89 33t46 63.5t13.5 103v547h133v-582q0 -160 -100 -228.5t-324 -68.5q-225 0 -322.5 70t-97.5 227zM333 1337h152l209 -350h-92z" />
<glyph unicode="&#xfa;" horiz-adv-x="1138" d="M147 270v582h134v-547q0 -63 13 -103t46 -63.5t89 -33t140 -9.5t140.5 9.5t89 33t46 63.5t13.5 103v547h133v-582q0 -160 -100 -228.5t-324 -68.5q-225 0 -322.5 70t-97.5 227zM444 987l209 350h152l-269 -350h-92z" />
<glyph unicode="&#xfb;" horiz-adv-x="1138" d="M147 270v582h134v-547q0 -63 13 -103t46 -63.5t89 -33t140 -9.5t140.5 9.5t89 33t46 63.5t13.5 103v547h133v-582q0 -160 -100 -228.5t-324 -68.5q-225 0 -322.5 70t-97.5 227zM293 987l200 350h152l200 -350h-92l-184 264l-184 -264h-92z" />
<glyph unicode="&#xfc;" horiz-adv-x="1138" d="M147 270v582h134v-547q0 -63 13 -103t46 -63.5t89 -33t140 -9.5t140.5 9.5t89 33t46 63.5t13.5 103v547h133v-582q0 -160 -100 -228.5t-324 -68.5q-225 0 -322.5 70t-97.5 227zM319 1147q0 37 26.5 63.5t63.5 26.5t62.5 -26.5t25.5 -63.5q0 -39 -25.5 -64.5t-62.5 -25.5 t-63.5 25.5t-26.5 64.5zM641 1147q0 37 25.5 63.5t62.5 26.5t63.5 -26.5t26.5 -63.5q0 -39 -26.5 -64.5t-63.5 -25.5t-62.5 25.5t-25.5 64.5z" />
<glyph unicode="&#xfd;" horiz-adv-x="915" d="M2 854h172l283 -303l278 303h178l-391 -416v-438h-131v436zM336 987l209 350h152l-269 -350h-92z" />
<glyph unicode="&#xff;" horiz-adv-x="915" d="M2 854h172l283 -303l278 303h178l-391 -416v-438h-131v436zM211 1147q0 37 26.5 63.5t63.5 26.5t62.5 -26.5t25.5 -63.5q0 -39 -25.5 -64.5t-62.5 -25.5t-63.5 25.5t-26.5 64.5zM533 1147q0 37 25.5 63.5t62.5 26.5t63.5 -26.5t26.5 -63.5q0 -39 -26.5 -64.5t-63.5 -25.5 t-62.5 25.5t-25.5 64.5z" />
<glyph unicode="&#x152;" horiz-adv-x="2019" d="M78 549q0 125 43 231.5t118.5 184t181 120.5t228.5 43q137 0 237.5 -47t182.5 -149v172h870v-127h-731v-324h443v-127h-443v-399h777v-127h-916v166q-156 -195 -420 -195q-123 0 -228.5 43t-181 120t-118.5 182.5t-43 232.5zM219 549q0 -98 33 -180t90 -142.5t136 -93.5 t171 -33t171 34t136.5 93.5t90 141.5t32.5 180t-32.5 181t-90 142.5t-136.5 93t-171 33.5t-171 -33.5t-136 -93t-90 -142.5t-33 -181z" />
<glyph unicode="&#x153;" horiz-adv-x="1857" d="M72 426q0 96 37.5 178t107.5 142.5t169 95.5t222 35q113 0 200 -31t167 -105v113h803v-125h-670v-213h438v-123h-438v-270h704v-123h-837v111q-80 -72 -172 -105t-209 -33t-213 35t-165 96.5t-106.5 144.5t-37.5 177zM209 426q0 -70 27.5 -129t78 -103t121 -70t158.5 -26 t159.5 26t123 70t78 104t26.5 128t-27.5 128t-78 104t-122 70t-159.5 26t-158.5 -26t-121 -70t-78 -103t-27.5 -129z" />
<glyph unicode="&#x178;" horiz-adv-x="929" d="M-102 1104h172l395 -436l393 436h174l-500 -553v-551h-137v553zM217 1399q0 37 26.5 63.5t63.5 26.5t62.5 -26.5t25.5 -63.5q0 -39 -25.5 -64.5t-62.5 -25.5t-63.5 25.5t-26.5 64.5zM539 1399q0 37 25.5 63.5t62.5 26.5t63.5 -26.5t26.5 -63.5q0 -39 -26.5 -64.5 t-63.5 -25.5t-62.5 25.5t-25.5 64.5z" />
<glyph unicode="&#x2c6;" d="M236 987l200 350h152l200 -350h-92l-184 264l-184 -264h-92z" />
<glyph unicode="&#x2dc;" d="M223 1047q23 90 73 136t122 46q31 0 53 -8l96 -31q33 -12 56 -12q35 0 57 18t39 55h82q-53 -182 -191 -182q-29 0 -65 10l-96 31q-10 4 -23.5 6t-30.5 2q-61 0 -92 -71h-80z" />
<glyph unicode="&#x2000;" horiz-adv-x="848" />
<glyph unicode="&#x2001;" horiz-adv-x="1696" />
<glyph unicode="&#x2002;" horiz-adv-x="848" />
<glyph unicode="&#x2003;" horiz-adv-x="1696" />
<glyph unicode="&#x2004;" horiz-adv-x="565" />
<glyph unicode="&#x2005;" horiz-adv-x="424" />
<glyph unicode="&#x2006;" horiz-adv-x="282" />
<glyph unicode="&#x2007;" horiz-adv-x="282" />
<glyph unicode="&#x2008;" horiz-adv-x="212" />
<glyph unicode="&#x2009;" horiz-adv-x="339" />
<glyph unicode="&#x200a;" horiz-adv-x="94" />
<glyph unicode="&#x2010;" horiz-adv-x="526" d="M47 489v121h432v-121h-432z" />
<glyph unicode="&#x2011;" horiz-adv-x="526" d="M47 489v121h432v-121h-432z" />
<glyph unicode="&#x2012;" horiz-adv-x="526" d="M47 489v121h432v-121h-432z" />
<glyph unicode="&#x2013;" d="M0 508v84h1024v-84h-1024z" />
<glyph unicode="&#x2014;" horiz-adv-x="2048" d="M0 508v84h2048v-84h-2048z" />
<glyph unicode="&#x2018;" horiz-adv-x="681" d="M248 864q0 115 149 264l39 -34q-63 -90 -90 -176h8q29 0 50.5 -25t21.5 -66q0 -43 -23.5 -69.5t-60.5 -26.5q-39 0 -66.5 34t-27.5 99z" />
<glyph unicode="&#x2019;" horiz-adv-x="681" d="M248 766q59 86 88 176h-10q-29 0 -49.5 23.5t-20.5 64.5q0 43 24.5 70.5t61.5 27.5q39 0 66.5 -34.5t27.5 -100.5q0 -111 -151 -262z" />
<glyph unicode="&#x201a;" horiz-adv-x="681" d="M248 -174q59 88 88 174h-8q-29 0 -50.5 24.5t-21.5 65.5q0 43 24.5 70.5t61.5 27.5q39 0 66.5 -34.5t27.5 -100.5q0 -111 -151 -262z" />
<glyph unicode="&#x201c;" horiz-adv-x="1013" d="M248 864q0 115 149 264l39 -34q-63 -90 -90 -176h8q29 0 50.5 -25t21.5 -66q0 -43 -23.5 -69.5t-60.5 -26.5q-39 0 -66.5 34t-27.5 99zM580 864q0 115 149 264l39 -34q-63 -90 -90 -176h8q29 0 50.5 -25t21.5 -66q0 -43 -23.5 -69.5t-60.5 -26.5q-39 0 -66.5 34t-27.5 99 z" />
<glyph unicode="&#x201d;" horiz-adv-x="1013" d="M248 766q59 86 88 176h-10q-29 0 -49.5 23.5t-20.5 64.5q0 43 24.5 70.5t61.5 27.5q39 0 66.5 -34.5t27.5 -100.5q0 -111 -151 -262zM580 766q59 86 88 176h-11q-29 0 -49 23.5t-20 64.5q0 43 24.5 70.5t61.5 27.5q39 0 66.5 -34.5t27.5 -100.5q0 -111 -152 -262z" />
<glyph unicode="&#x201e;" horiz-adv-x="1013" d="M248 -176q59 86 88 176h-10q-29 0 -49.5 23.5t-20.5 64.5q0 43 24.5 70.5t61.5 27.5q39 0 66.5 -34.5t27.5 -100.5q0 -111 -151 -262zM580 -176q59 86 88 176h-11q-29 0 -49 23.5t-20 64.5q0 43 24.5 70.5t61.5 27.5q39 0 66.5 -34.5t27.5 -100.5q0 -111 -152 -262z" />
<glyph unicode="&#x2022;" horiz-adv-x="1208" d="M307 762q0 61 23.5 114.5t63.5 93.5t94.5 63.5t115.5 23.5t114.5 -23.5t93.5 -63.5t63.5 -93.5t23.5 -114.5t-23.5 -114.5t-63.5 -94.5t-94 -64.5t-116 -23.5q-61 0 -115.5 23.5t-94.5 63.5t-62.5 94.5t-22.5 115.5z" />
<glyph unicode="&#x2026;" horiz-adv-x="2048" d="M258 61q0 41 24.5 67t59.5 26t58.5 -26t23.5 -67t-23.5 -65.5t-58.5 -24.5t-59.5 24.5t-24.5 65.5zM940 61q0 41 24.5 67t59.5 26t58.5 -26t23.5 -67t-23.5 -65.5t-58.5 -24.5t-59.5 24.5t-24.5 65.5zM1624 61q0 41 24.5 67t59.5 26t58.5 -26t23.5 -67t-23.5 -65.5 t-58.5 -24.5t-59.5 24.5t-24.5 65.5z" />
<glyph unicode="&#x202f;" horiz-adv-x="339" />
<glyph unicode="&#x2039;" horiz-adv-x="417" d="M47 326v198l324 244v-145l-254 -197l254 -201v-141z" />
<glyph unicode="&#x203a;" horiz-adv-x="417" d="M47 84v141l254 201l-254 197v145l324 -244v-198z" />
<glyph unicode="&#x205f;" horiz-adv-x="424" />
<glyph unicode="&#x2122;" horiz-adv-x="1705" d="M264 1397v57h430v-57h-172v-473h-82v473h-176zM821 924v530h117l166 -422l156 422h116v-530h-71v467l-177 -467h-49l-186 467v-467h-72z" />
<glyph unicode="&#x25fc;" horiz-adv-x="849" d="M0 0v850h850v-850h-850z" />
</font>
</defs>
</svg>
